# xmcd
#
# Track frame offsets: 
#        150
#        15463
#        32916
#        54717
#        74338
#        93775
#        115381
#        131323
#        149563
#        166747
#        181522
#        195632
#        211642
#        225220
#        239569
#        255961
#        271727
#        287317
#        301592
#        315558
#
# Disc length: 4420 seconds
#
# Revision: 0
# Processed by: cddbd v1.5.2PL0 Copyright (c) Steve Scherf et al.
# Submitted via: ExactAudioCopyFreeDBPlugin 1.0
#
DISCID=f9114214
DTITLE=60 Ans Europe 1 - 90s à aujourd'hui CD 5
DYEAR=2015
DGENRE=Pop
TTITLE0=Vanessa Paradis - Vanessa Paradis - Tandem 
TTITLE1=Zazie - Zazie - Zen
TTITLE2=Fugees - Fugees - Killing me shortly with his song
TTITLE3=Santana - Santana - Maria Maria
TTITLE4=Oasis - Oasis - Wonderwall
TTITLE5=Noir Désir - Noir Désir - Le vent nous portera
TTITLE6=Olivia Ruiz - Olivia Ruiz - J'traine les pieds
TTITLE7=Marc Lavoine - Marc Lavoine - J'ai tout oublié
TTITLE8=Renaud et Axelle Red - Renaud et Axelle Red - Manatthan Kaboul
TTITLE9=Norah Jones - Norah Jones - Come away with me
TTITLE10=Camille - Camille - Ta douleur
TTITLE11=Amy Winehouse - Amy Winehouse - Rehab
TTITLE12=Bénabar - Bénabar - Le diner
TTITLE13=Mika - Mika - Grace Kelly
TTITLE14=Charlie Winston - Charlie Winston - Like a hobo
TTITLE15=Mélody Gardot - Melody Gardot - Baby I'm a fool
TTITLE16=Calogero - Calogero - C'est dit
TTITLE17=Nolwenn Leroy - Nolwenn Leroy - Tri Martolod
TTITLE18=Florent Pagny - Florent Pagny - Viellir avec toi
TTITLE19=Stromae - Stromae - Formidable
EXTD=
EXTT0=
EXTT1=
EXTT2=
EXTT3=
EXTT4=
EXTT5=
EXTT6=
EXTT7=
EXTT8=
EXTT9=
EXTT10=
EXTT11=
EXTT12=
EXTT13=
EXTT14=
EXTT15=
EXTT16=
EXTT17=
EXTT18=
EXTT19=
PLAYORDER=
